HIERARCHY
ROOT Hips
{
	OFFSET -0.001795 -0.223333 0.028219
	CHANNELS 6 Xposition Yposition Zposition Zrotation Yrotation Xrotation 
	JOINT LeftUpLeg
	{
		OFFSET 0.069520 -0.091406 -0.006815
		CHANNELS 3 Zrotation Yrotation Xrotation
		JOINT LeftLeg
		{
			OFFSET 0.034277 -0.375199 -0.004496
			CHANNELS 3 Zrotation Yrotation Xrotation
			JOINT LeftFoot
			{
				OFFSET -0.013596 -0.397961 -0.043693
				CHANNELS 3 Zrotation Yrotation Xrotation
				JOINT LeftToe
				{
					OFFSET 0.026358 -0.055791 0.119288
					CHANNELS 3 Zrotation Yrotation Xrotation
					End Site
					{
						OFFSET 0.000000 0.000000 0.000000
					}
				}
			}
		}
	}
	JOINT RightUpLeg
	{
		OFFSET -0.067670 -0.090522 -0.004320
		CHANNELS 3 Zrotation Yrotation Xrotation
		JOINT RightLeg
		{
			OFFSET -0.038290 -0.382569 -0.008850
			CHANNELS 3 Zrotation Yrotation Xrotation
			JOINT RightFoot
			{
				OFFSET 0.015774 -0.398415 -0.042312
				CHANNELS 3 Zrotation Yrotation Xrotation
				JOINT RightToe
				{
					OFFSET -0.025372 -0.048144 0.123348
					CHANNELS 3 Zrotation Yrotation Xrotation
					End Site
					{
						OFFSET 0.000000 0.000000 0.000000
					}
				}
			}
		}
	}
	JOINT Spine
	{
		OFFSET -0.002533 0.108963 -0.026696
		CHANNELS 3 Zrotation Yrotation Xrotation
		JOINT Spine1
		{
			OFFSET 0.005487 0.135180 0.001092
			CHANNELS 3 Zrotation Yrotation Xrotation
			JOINT Spine2
			{
				OFFSET 0.001457 0.052922 0.025425
				CHANNELS 3 Zrotation Yrotation Xrotation
				JOINT Neck
				{
					OFFSET -0.002778 0.213870 -0.042857
					CHANNELS 3 Zrotation Yrotation Xrotation
					JOINT Head
					{
						OFFSET 0.005152 0.064970 0.051349
						CHANNELS 3 Zrotation Yrotation Xrotation
						End Site
						{
							OFFSET 0.000000 0.000000 0.000000
						}
					}
				}
				JOINT LeftShoulder
				{
					OFFSET 0.078845 0.121749 -0.034090
					CHANNELS 3 Zrotation Yrotation Xrotation
					JOINT LeftArm
					{
						OFFSET 0.090977 0.030469 -0.008868
						CHANNELS 3 Zrotation Yrotation Xrotation
						JOINT LeftForeArm
						{
							OFFSET 0.259612 -0.012772 -0.027456
							CHANNELS 3 Zrotation Yrotation Xrotation
							JOINT LeftHand
							{
								OFFSET 0.249234 0.008986 -0.001171
								CHANNELS 3 Zrotation Yrotation Xrotation
								End Site
								{
									OFFSET 0.000000 0.000000 0.000000
								}
							}
						}
					}
				}
				JOINT RightShoulder
				{
					OFFSET -0.081759 0.118833 -0.038615
					CHANNELS 3 Zrotation Yrotation Xrotation
					JOINT RightArm
					{
						OFFSET -0.096012 0.032551 -0.009143
						CHANNELS 3 Zrotation Yrotation Xrotation
						JOINT RightForeArm
						{
							OFFSET -0.253742 -0.013329 -0.021401
							CHANNELS 3 Zrotation Yrotation Xrotation
							JOINT RightHand
							{
								OFFSET -0.255298 0.007772 -0.005559
								CHANNELS 3 Zrotation Yrotation Xrotation
								End Site
								{
									OFFSET 0.000000 0.000000 0.000000
								}
							}
						}
					}
				}
			}
		}
	}
}
MOTION
Frames: 16
Frame Time: 0.050000
-0.091193 0.960478 -0.029010 0.045207 -4.406841 3.566860 5.897777 -0.292275 -5.940076 -1.848415 0.110263 10.574255 6.873916 15.455568 15.566691 0.000000 0.000000 0.000000 -3.410952 1.035479 -12.327410 -5.357338 1.570277 10.961715 11.236529 11.688861 18.692876 0.000000 0.000000 0.000000 12.688909 -0.762931 3.812770 7.209197 -3.288281 -1.112362 -1.322617 -0.205798 -1.754773 5.262302 -3.402744 -5.177779 0.000000 0.000000 0.000000 -13.477314 1.379942 -1.733693 -47.084802 -10.614654 -0.985256 14.987404 -73.029475 -7.378053 0.000000 0.000000 0.000000 11.411061 -17.573363 -9.205369 49.668034 5.790002 -1.913108 -106.133437 61.779856 -73.557474 0.000000 0.000000 0.000000 
-0.093947 0.960649 -0.027328 -0.397110 -1.983094 3.687327 6.493612 -0.308410 -6.042744 -1.013576 -0.105093 9.999606 4.310933 12.162284 17.201993 0.000000 0.000000 0.000000 -2.715746 0.965330 -11.242749 -5.502864 1.457008 9.710409 10.595061 10.810684 18.933369 0.000000 0.000000 0.000000 11.080293 -0.518117 2.285288 7.108234 -3.251868 -1.124725 -2.053726 -1.411798 -3.028660 5.464975 -3.708521 -3.547374 0.000000 0.000000 0.000000 -13.710132 1.823015 -2.040843 -46.286416 -17.178928 1.652006 36.757009 -70.742787 -22.901176 0.000000 0.000000 0.000000 10.369437 -17.967057 -9.029828 51.135385 6.751473 -1.458337 -106.137608 59.020056 -70.419308 0.000000 0.000000 0.000000 
-0.095595 0.960982 -0.025402 -0.817070 0.263788 4.013868 7.132241 -0.342901 -6.579886 -0.232953 -0.276407 9.316700 1.716872 9.254998 19.697549 0.000000 0.000000 0.000000 -2.555128 0.898581 -10.526229 -4.729746 1.211761 8.734945 9.751969 9.699462 19.001346 0.000000 0.000000 0.000000 9.411647 -0.263333 0.481783 6.591187 -2.983729 -1.478776 -2.513027 -2.468447 -3.818888 5.319524 -3.725779 -2.348684 0.000000 0.000000 0.000000 -13.414094 0.852588 -1.609150 -46.446969 -24.931697 4.832666 57.204484 -64.544019 -34.490834 0.000000 0.000000 0.000000 8.486540 -17.964329 -8.431761 52.406369 8.386410 -0.720789 -104.288488 55.773959 -64.934612 0.000000 0.000000 0.000000 
-0.095906 0.960911 -0.023473 -0.944072 2.549330 4.294365 7.478006 -0.380011 -6.667500 -0.141876 -0.280416 8.175435 -0.544610 7.131423 22.153689 0.000000 0.000000 0.000000 -2.200810 0.836713 -9.690520 -4.702647 1.141469 8.055045 8.138558 8.011620 17.734985 0.000000 0.000000 0.000000 7.474341 -0.051828 -1.231624 6.101367 -2.763634 -1.419346 -3.094309 -3.754491 -4.682034 5.081633 -3.592863 -1.733718 0.000000 0.000000 0.000000 -12.308766 0.425764 -1.334978 -48.254219 -32.420083 8.464078 68.289826 -58.343713 -38.113177 0.000000 0.000000 0.000000 6.577654 -16.447179 -7.253564 53.992507 10.841045 0.452075 -101.860948 52.320430 -58.971859 0.000000 0.000000 0.000000 
-0.095085 0.960678 -0.021835 -1.094904 3.447632 4.583969 7.830810 -0.395149 -6.779582 0.169894 -0.308716 7.346648 -1.998866 5.546410 22.873264 0.000000 0.000000 0.000000 -1.980936 0.798499 -9.101921 -4.627963 1.049696 7.064209 7.347479 7.020021 17.275783 0.000000 0.000000 0.000000 5.911892 0.087866 -2.628416 5.446738 -2.412673 -1.901490 -3.435109 -3.817312 -4.919355 4.936210 -3.528244 -1.333474 0.000000 0.000000 0.000000 -10.073072 -0.545716 -0.760040 -51.886376 -39.022221 12.619910 72.297409 -53.457170 -37.424155 0.000000 0.000000 0.000000 4.998107 -15.163275 -6.312653 54.468655 13.784498 1.872741 -97.242131 50.084925 -52.419849 0.000000 0.000000 0.000000 
-0.093883 0.960288 -0.020859 -0.840503 4.898533 4.541254 7.762058 -0.418836 -6.607007 0.153468 -0.277106 6.431127 -3.083511 4.519489 23.353677 0.000000 0.000000 0.000000 -2.125044 0.740915 -8.590123 -4.438636 0.997910 6.840222 5.991208 5.020761 16.964121 0.000000 0.000000 0.000000 4.701440 0.189352 -3.961680 4.695639 -2.076954 -1.780968 -4.453471 -5.003954 -4.850260 4.209111 -2.855017 -2.326671 0.000000 0.000000 0.000000 -8.455975 -0.946642 -0.428797 -55.612131 -44.412096 16.871668 74.178813 -49.775006 -35.817554 0.000000 0.000000 0.000000 3.666896 -13.258509 -5.269961 55.600222 16.654931 3.282084 -93.686002 47.276911 -46.867375 0.000000 0.000000 0.000000 
-0.092813 0.959965 -0.020272 -0.755585 5.637227 4.614144 7.810403 -0.423500 -6.250197 0.181252 -0.246276 5.549560 -3.953284 3.380353 23.023073 0.000000 0.000000 0.000000 -2.110900 0.709027 -8.217229 -4.581298 1.002298 6.584196 5.435403 4.450177 16.339737 0.000000 0.000000 0.000000 3.448639 0.216684 -4.625445 4.038093 -1.699939 -2.591147 -4.614038 -5.135139 -4.483561 3.106093 -2.067072 -2.260060 0.000000 0.000000 0.000000 -7.052550 -1.240242 -0.206346 -58.915494 -48.806900 20.849226 74.883969 -46.384388 -33.737690 0.000000 0.000000 0.000000 2.227115 -12.417386 -4.626789 56.612619 20.125859 5.056429 -90.713155 45.076589 -42.354098 0.000000 0.000000 0.000000 
-0.092170 0.959937 -0.019873 -0.516828 6.640644 4.762915 7.783811 -0.444967 -6.261950 0.082503 -0.211306 4.983409 -4.869598 2.333651 23.038810 0.000000 0.000000 0.000000 -2.293315 0.690766 -8.182735 -4.573106 0.991800 6.487765 4.864134 3.472056 16.655595 0.000000 0.000000 0.000000 2.316344 0.252629 -5.785377 3.687485 -1.638346 -1.431571 -5.313538 -6.021434 -5.657070 2.140766 -1.315243 -2.495929 0.000000 0.000000 0.000000 -5.335474 -0.173386 -0.474691 -62.375497 -51.988566 24.797719 74.231292 -43.157067 -31.045106 0.000000 0.000000 0.000000 0.400728 -11.163736 -3.766120 57.799853 23.340954 6.942493 -88.276438 40.525185 -36.628845 0.000000 0.000000 0.000000 
-0.091838 0.960486 -0.019652 -0.316308 6.887413 4.786753 7.931331 -0.448648 -6.274710 -0.276862 -0.151745 4.729899 -5.668548 1.623637 23.884874 0.000000 0.000000 0.000000 -2.120246 0.689256 -8.061625 -4.836944 1.057702 6.802204 3.981033 2.316018 15.694170 0.000000 0.000000 0.000000 1.425643 0.230742 -5.848338 3.069001 -1.256334 -2.575462 -5.160548 -6.097915 -5.059415 1.625997 -1.015740 -1.847576 0.000000 0.000000 0.000000 -4.434020 -0.637271 -0.204531 -60.482754 -55.163728 25.970135 75.217283 -37.074782 -26.860202 0.000000 0.000000 0.000000 -0.413461 -10.500652 -3.377684 56.181108 26.500905 8.219247 -87.471662 35.398574 -31.206676 0.000000 0.000000 0.000000 
-0.091494 0.961397 -0.019701 -0.133378 6.529846 5.090191 7.652387 -0.454597 -6.450850 -0.035198 -0.176245 4.559286 -6.034670 1.295052 24.470973 0.000000 0.000000 0.000000 -2.095299 0.729707 -8.542616 -5.276423 1.169072 7.295089 4.031391 2.533681 15.224123 0.000000 0.000000 0.000000 0.894735 0.242378 -6.518242 2.820904 -1.156036 -2.450565 -5.583000 -6.059060 -5.496848 0.583995 -0.276848 -1.548384 0.000000 0.000000 0.000000 -2.192940 -0.381591 -0.086904 -57.648128 -59.080471 27.152874 75.143513 -28.268565 -20.271606 0.000000 0.000000 0.000000 -2.394886 -8.908668 -2.460422 53.219607 30.519809 9.628982 -85.602480 29.128810 -24.584383 0.000000 0.000000 0.000000 
-0.090970 0.962553 -0.019927 -0.072331 5.909481 4.992499 7.457318 -0.444062 -6.428672 -0.186136 -0.157504 4.666409 -5.409693 2.371099 25.449205 0.000000 0.000000 0.000000 -2.126240 0.749856 -8.784644 -5.317569 1.224594 7.911639 4.083651 2.603674 15.008803 0.000000 0.000000 0.000000 0.597779 0.234153 -6.402907 1.934484 -0.694218 -3.462143 -5.233583 -5.557914 -4.802234 0.649609 -0.386529 -0.907412 0.000000 0.000000 0.000000 -0.233935 -1.197420 0.379994 -51.179593 -63.624722 26.177019 75.380104 -17.877432 -12.626461 0.000000 0.000000 0.000000 -4.075541 -7.641433 -1.774988 47.891160 34.961632 10.258198 -83.555483 22.338787 -17.651993 0.000000 0.000000 0.000000 
-0.090279 0.963791 -0.020221 -0.094173 5.178754 5.162156 7.311022 -0.432300 -6.281912 -0.512591 -0.107366 4.628517 -4.210900 3.555750 24.790683 0.000000 0.000000 0.000000 -1.852957 0.791595 -9.051489 -5.958592 1.364482 8.186626 4.414775 3.303003 14.515946 0.000000 0.000000 0.000000 0.450115 0.239416 -6.531622 1.651790 -0.525459 -4.338032 -5.386775 -4.891013 -4.321089 0.061671 0.153474 -2.351085 0.000000 0.000000 0.000000 2.733533 -0.626976 0.472445 -45.656523 -67.139392 24.653995 75.494478 -10.898033 -7.595839 0.000000 0.000000 0.000000 -6.540275 -6.293940 -0.998066 41.500972 39.301024 10.141504 -80.290615 16.705789 -11.816651 0.000000 0.000000 0.000000 
-0.089596 0.964685 -0.020395 -0.322198 4.314259 4.946679 7.378044 -0.406897 -6.048043 -0.581562 -0.108987 5.076992 -3.539287 4.162524 24.470046 0.000000 0.000000 0.000000 -1.540852 0.828596 -9.231009 -6.041017 1.425304 8.681162 4.530833 3.350975 14.548960 0.000000 0.000000 0.000000 0.671904 0.240165 -6.158689 1.277371 -0.355466 -4.731882 -5.189851 -4.025278 -4.918385 0.549232 -0.331841 -0.787729 0.000000 0.000000 0.000000 4.920274 -1.304038 0.901210 -34.277277 -68.689507 17.961227 73.168804 -5.186092 -3.396583 0.000000 0.000000 0.000000 -8.211065 -4.843029 -0.375389 34.961799 42.148806 9.105279 -78.147678 13.071051 -8.345711 0.000000 0.000000 0.000000 
-0.089008 0.965467 -0.020463 -0.346503 4.159187 4.700640 7.482507 -0.391878 -5.788538 -1.089864 -0.037264 5.170805 -2.937680 4.909169 24.450396 0.000000 0.000000 0.000000 -1.504283 0.798993 -8.837019 -6.091544 1.464905 9.020749 4.437705 3.650153 13.442266 0.000000 0.000000 0.000000 0.640985 0.231782 -5.917886 1.522015 -0.476029 -4.461605 -5.671434 -3.285996 -5.725498 0.725542 -0.514737 -0.291014 0.000000 0.000000 0.000000 7.139602 -1.019862 1.105561 -28.113275 -69.273417 13.964489 71.393362 -4.025878 -2.714794 0.000000 0.000000 0.000000 -10.617407 -4.233990 0.049280 31.094706 44.474083 8.635873 -76.681743 10.833787 -6.097200 0.000000 0.000000 0.000000 
-0.088279 0.965980 -0.020566 -0.311530 4.654416 4.715135 7.372667 -0.396762 -5.610279 -0.873868 -0.064925 4.960461 -3.402383 4.139395 23.662433 0.000000 0.000000 0.000000 -1.480743 0.799721 -8.864934 -6.242940 1.519768 9.368846 4.273946 3.504145 13.250486 0.000000 0.000000 0.000000 0.754972 0.238994 -6.113792 1.295820 -0.371283 -4.495253 -5.723904 -2.946072 -5.834809 0.636737 -0.563122 0.784337 0.000000 0.000000 0.000000 8.788310 -0.960938 1.321868 -25.339757 -68.390693 11.699973 70.377549 -5.964247 -4.071683 0.000000 0.000000 0.000000 -11.878432 -4.032017 0.191530 29.609231 44.973758 8.342393 -77.321737 11.378449 -6.310823 0.000000 0.000000 0.000000 
-0.087407 0.965646 -0.020836 -0.233194 5.447242 4.454340 7.213706 -0.400522 -5.409931 -0.491497 -0.122655 4.927369 -4.206122 3.061550 23.199278 0.000000 0.000000 0.000000 -1.520845 0.764669 -8.528989 -6.325240 1.563054 9.757337 3.914749 3.183256 12.697582 0.000000 0.000000 0.000000 0.567282 0.220699 -5.910158 1.451283 -0.399844 -4.991086 -5.956850 -2.847842 -5.134682 0.777433 -0.733772 1.262165 0.000000 0.000000 0.000000 9.259630 -0.037350 1.191146 -28.555553 -67.529421 13.191609 71.905132 -9.225406 -6.541954 0.000000 0.000000 0.000000 -12.525985 -4.299491 0.116779 31.941019 44.491256 9.102379 -80.278473 12.289673 -7.121553 0.000000 0.000000 0.000000 
